<svg id="Calque_1" data-name="Calque 1" xmlns="http://www.w3.org/2000/svg" viewBox="0 0 792 612"><defs><style>.cls-1{fill:#ff9015;}.cls-2{fill:#050c35;}</style></defs><rect class="cls-1" x="522.14" y="65.44" width="112.09" height="112.09"/><polygon class="cls-2" points="590.44 355.3 553.84 355.3 553.84 139.95 194.37 139.95 194.37 499.41 403.84 499.41 403.84 535.52 157.77 535.52 157.77 103.35 590.44 103.35 590.44 355.3"/><path class="cls-1" d="M467.08,430.79h26.3V533.07h-26.3Z"/><path class="cls-1" d="M539.3,454.64H514V430.79h77v23.85H565.6v78.43H539.3V454.64Z"/><path class="cls-2" d="M253.36,277.85V388.47H225.58V277.85Z"/><path class="cls-2" d="M342.41,389l-20.92-32.19H300.58V389H272.8V278.34H321c27.78,0,45.75,15,45.75,39.05,0,14.54-6.86,26.31-18.46,33.17l26.31,39.05H342.41V389Zm-41.83-57H321c10.79,0,19-5.89,19-15,0-8.82-8.34-14.54-19-14.54H300.58Z"/><path class="cls-2" d="M412.67,277.85V388.47H384.89V277.85Z"/><path class="cls-2" d="M524.59,312.33H496.81c-1.47-8.34-6.37-14.05-18-14.05-9.8,0-16,3.92-16,10.78,0,6.37,4.41,9.31,13.23,10.78l15.53,3.44C512,327.69,525.24,336,525.24,355c0,21.9-18,36.11-45.75,36.11-24.83,0-47.22-11.76-50.16-39.54h27.78c2,9.81,10.29,16,23.36,16,9.81,0,15.53-3.92,15.53-9.8,0-3.92-2-7.84-11.77-9.8l-19-3.92c-21.9-4.91-32.19-14.55-32.19-32.19,0-21.9,18-36.11,43.79-36.11C494.85,275.89,521.65,282.75,524.59,312.33Z"/><circle class="cls-1" cx="571.81" cy="353.83" r="18.46"/><circle class="cls-1" cx="403.35" cy="517.55" r="18.46"/></svg>